<svg xmlns="http://www.w3.org/2000/svg" width="161.545" height="150.004" viewBox="0 0 161.545 150.004">
  <g id="check2-circle" transform="translate(-3.375 -3.373)">
    <path id="Trazado_11" data-name="Trazado 11" d="M135.367,7.323a5.769,5.769,0,0,1,0,8.169L54.6,96.259a5.769,5.769,0,0,1-8.169,0L11.815,61.645a5.776,5.776,0,0,1,8.169-8.169L50.517,84.013,127.2,7.317a5.769,5.769,0,0,1,8.169,0Z" transform="translate(27.858 9.288)" fill="#fff" fill-rule="evenodd"/>
    <path id="Trazado_12" data-name="Trazado 12" d="M78.375,14.923a63.46,63.46,0,1,0,63.46,63.46,5.769,5.769,0,1,1,11.538,0,75,75,0,1,1-37.5-64.963A5.769,5.769,0,1,1,110.1,23.4,63.137,63.137,0,0,0,78.375,14.923Z" transform="translate(0 0)" fill="#fff" fill-rule="evenodd"/>
  </g>
</svg>
