<svg xmlns="http://www.w3.org/2000/svg" width="86.284" height="84.127" viewBox="0 0 86.284 84.127">
  <path id="adobexd" d="M71,.45H15.279A15.267,15.267,0,0,0,0,15.729V69.3A15.267,15.267,0,0,0,15.279,84.577H71A15.267,15.267,0,0,0,86.284,69.3V15.729A15.267,15.267,0,0,0,71,.45ZM82.653,67.9A13.024,13.024,0,0,1,69.638,80.982H16.646A13.073,13.073,0,0,1,3.6,67.931V17.1a13.073,13.073,0,0,1,13.05-13.05H69.6A13.05,13.05,0,0,1,82.653,17.1ZM34.118,39.817,44.185,59.159c.18.288.072.575-.216.575H37.713a.705.705,0,0,1-.755-.467c-2.3-4.746-4.638-9.491-7.047-14.6H29.84c-2.157,4.818-4.53,9.887-6.831,14.632a.69.69,0,0,1-.647.4H16.43c-.36,0-.4-.288-.216-.5l9.851-18.767L16.538,21.446a.291.291,0,0,1,.216-.5h6.184a.566.566,0,0,1,.647.4c2.265,4.746,4.566,9.635,6.723,14.417h.072c2.085-4.746,4.386-9.671,6.615-14.381.18-.288.288-.467.647-.467H43.43c.288,0,.4.216.216.5Zm11.828,5.86c0-8.377,5.572-14.92,14.417-14.92a15.943,15.943,0,0,1,1.869.072V21.3a.36.36,0,0,1,.36-.36h5.68c.288,0,.36.108.36.288v33a25.606,25.606,0,0,0,.18,3.523c0,.216-.072.288-.288.4a21.415,21.415,0,0,1-9.2,2.085C51.519,60.273,45.946,55.456,45.946,45.677Zm16.286-9.2a5.437,5.437,0,0,0-2.085-.36c-4.53,0-7.694,3.487-7.694,9.276,0,6.615,3.236,9.276,7.3,9.276a6.783,6.783,0,0,0,2.481-.4v-17.8Z" transform="translate(0 -0.45)" fill="#fff"/>
</svg>
