<svg xmlns="http://www.w3.org/2000/svg" width="135" height="135" viewBox="0 0 135 135">
  <g id="Grupo_3" data-name="Grupo 3" transform="translate(0.161 0.197)">
    <path id="database" d="M30.731,30.731A86.7,86.7,0,0,0,48.458,29.01q8.244-1.721,13-5.081v6.8q0,2.761-4.121,5.121a37.175,37.175,0,0,1-11.2,3.741,80.6,80.6,0,0,1-15.4,1.38,80.6,80.6,0,0,1-15.4-1.38A37.23,37.23,0,0,1,4.121,35.852Q0,33.492,0,30.731v-6.8q4.762,3.362,13,5.081a86.866,86.866,0,0,0,17.727,1.721Zm0,30.731a86.7,86.7,0,0,0,17.727-1.721q8.244-1.721,13-5.081v6.8q0,2.761-4.121,5.121a37.176,37.176,0,0,1-11.2,3.741,80.6,80.6,0,0,1-15.4,1.38,80.6,80.6,0,0,1-15.4-1.38,37.175,37.175,0,0,1-11.2-3.741Q0,64.223,0,61.46v-6.8q4.762,3.362,13,5.081A86.866,86.866,0,0,0,30.731,61.46Zm0-15.365a86.7,86.7,0,0,0,17.727-1.721q8.244-1.721,13-5.081v6.8q0,2.761-4.121,5.121a37.175,37.175,0,0,1-11.2,3.741,80.6,80.6,0,0,1-15.4,1.38,80.6,80.6,0,0,1-15.4-1.38,37.175,37.175,0,0,1-11.2-3.741Q0,48.858,0,46.1v-6.8q4.762,3.362,13,5.081A86.866,86.866,0,0,0,30.731,46.1Zm0-46.1a80.582,80.582,0,0,1,15.4,1.38,37.2,37.2,0,0,1,11.2,3.741q4.123,2.36,4.121,5.121v5.121q0,2.761-4.121,5.121a37.175,37.175,0,0,1-11.2,3.741,80.8,80.8,0,0,1-15.4,1.384,80.176,80.176,0,0,1-15.4-1.38A37.351,37.351,0,0,1,4.121,20.487Q0,18.131,0,15.365V10.244Q0,7.483,4.121,5.123a37.175,37.175,0,0,1,11.2-3.741A80.715,80.715,0,0,1,30.731,0Z" transform="translate(36.771 32.175)" fill="#fff"/>
    <g id="Rectángulo_7" data-name="Rectángulo 7" transform="translate(-0.161 -0.197)" fill="none" stroke="#0288d1" stroke-width="4">
      <rect width="135" height="135" rx="21" stroke="none"/>
      <rect x="2" y="2" width="131" height="131" rx="19" fill="none"/>
    </g>
  </g>
</svg>
