<svg xmlns="http://www.w3.org/2000/svg" width="75.539" height="84.985" viewBox="0 0 75.539 84.985">
  <path id="css3" d="M6.573,5.144l7.08,76.722,30.689,8.263,30.686-8.26L82.112,5.147H6.573ZM66.9,30.01,44.316,39.668l-.056.023H66.1l-2.5,28.733L44.349,74.046l-.033-.01v.01L24.954,68.321,23.7,53.85h9.612l.625,7.5,10.289,2.6.089-.026v.013l10.653-3,.73-12.074-11.38-.033L23.086,48.75l-.727-9.056,21.964-9.149,1.279-.532H21.516l-1.147-9.268H67.836L66.9,30.01Z" transform="translate(-6.573 -5.144)" fill="#fff"/>
</svg>
