<svg xmlns="http://www.w3.org/2000/svg" width="83.546" height="83.546" viewBox="0 0 83.546 83.546">
  <path id="logo-javascript-outline" d="M2.25,2.25V85.8H85.8V2.25Zm44.757,64.9c0,8.132-4.8,12.1-11.757,12.1-6.281,0-9.927-3.252-11.776-7.177l6.392-3.87c1.233,2.188,2.17,4.037,4.859,4.037,2.238,0,4.076-1.008,4.076-4.933V41.039h8.206ZM65.535,79.059c-7.291,0-12-3.289-14.3-7.832l6.4-3.708c1.679,2.748,3.87,4.58,7.739,4.58,3.252,0,5.143-1.44,5.143-3.684,0-2.692-1.944-3.644-5.535-5.222l-1.963-.843C57.356,59.942,53.6,56.913,53.6,50.518c0-5.888,4.485-10.187,11.495-10.187,4.992,0,8.577,1.552,11.161,6.095l-6.124,3.939c-1.347-2.411-2.8-3.358-5.047-3.358-2.3,0-3.758,1.459-3.758,3.358,0,2.355,1.459,3.307,4.822,4.766l1.963.841c6.673,2.862,10.431,5.782,10.431,12.338,0,7.068-5.551,10.75-13.009,10.75Z" transform="translate(-2.25 -2.25)" fill="#fff"/>
</svg>
