<svg xmlns="http://www.w3.org/2000/svg" width="100.577" height="69.155" viewBox="0 0 100.577 69.155">
  <path id="logo-sass-outline" d="M100.541,54.36A9.094,9.094,0,0,0,97,48.314a.7.7,0,0,0-.084-.087l-.1-.075-.034-.022-1.1-.785-.036-.028-.14-.1a.687.687,0,0,0-.162-.07c-3.462-2.062-9.192-3.5-17.959-.411-2.093-3.52-2.33-6.342-.93-10.664A1.129,1.129,0,0,0,75.73,34.5a8.357,8.357,0,0,0-5.012.073A1.505,1.505,0,0,0,69.5,35.719c-.922,4.322-3.607,8.27-6.2,12.081l-.154.224c-1.6-3.392-1.268-6.018-.154-9.307a1.035,1.035,0,0,0-.567-1.419c-1.718-.886-4.292-.277-5.317.025-1.3.38-2.7,3.895-4.252,8.1-.394,1.059-.732,1.964-.933,2.386-.481.983-.942,2.1-1.428,3.291-1.1,2.691-2.339,5.716-4.113,7.619-.645-1.425.369-3.668,1.352-5.848,1.165-2.576,2.266-5.01,1-6.563a2.322,2.322,0,0,0-1.637-.849,2.6,2.6,0,0,0-1.207.2,6.866,6.866,0,0,0-.187-3.045A3.159,3.159,0,0,0,42.373,40.3c-3.775.109-6.971,2.922-8.988,5.264-1.344,1.573-4.322,2.769-6.937,3.822-1.034.439-2.014.83-2.836,1.224A56.464,56.464,0,0,0,18.9,47.213c-4.912-3.3-10.477-7.035-10.67-12.1-.274-7.488,8.251-12.8,15.694-16.585a67.341,67.341,0,0,1,14.992-5.809c6.247-1.458,11.525-1.165,15.68.872a5.056,5.056,0,0,1,2.663,6.027C55.485,26.088,48.16,30.522,41.9,32.52a27.382,27.382,0,0,1-9.824,1.539,16.83,16.83,0,0,1-7.7-2.749,4.16,4.16,0,0,0-.629-.355l-.056-.014a.631.631,0,0,0-.626.2,1.1,1.1,0,0,0-.073,1.028c1.207,3.157,3.7,5.152,7.415,5.926a18.091,18.091,0,0,0,3.688.352c8.686,0,19.767-5.007,23.838-9.131a18.25,18.25,0,0,0,5.635-10.676C64.44,13.42,60.9,9.8,57.3,8.126c-8.756-4.04-18.7-2.445-25.5-.394A68.3,68.3,0,0,0,9.221,19.7C1.339,26.119-1.508,32.078.749,37.432,3.068,42.919,8.726,46.35,14.2,49.669c1.769,1.07,3.451,2.09,4.965,3.143-.455.221-.922.447-1.394.673-4.593,2.227-9.8,4.73-12.693,8.871-2.1,3.015-2.492,6.018-1.168,8.924A5.664,5.664,0,0,0,7.62,74.4a9.823,9.823,0,0,0,2.794.38,19.225,19.225,0,0,0,9.181-2.646,15.146,15.146,0,0,0,6.932-9.016,14.207,14.207,0,0,0-.617-9.539l4.412-2.224c-2.126,7.071-.5,11.3,1.294,13.626a4.464,4.464,0,0,0,6.426.07,26.426,26.426,0,0,0,3.166-5.412,8.855,8.855,0,0,0,.433,3.554,2.9,2.9,0,0,0,1.81,1.836,3.328,3.328,0,0,0,2.827-.617C50.632,61.429,53.611,54.276,56,48.526c.341-.816.665-1.6.983-2.339a29.959,29.959,0,0,0,2.456,6.1.654.654,0,0,1-.1.95c-.472.52-1.134,1.146-1.833,1.81-2.118,2.009-4.755,4.518-5.107,6.725a1.669,1.669,0,0,0,1.417,1.872,12.613,12.613,0,0,0,9.161-2.21,6.485,6.485,0,0,0,2.948-7.306c-.654-2.959.838-6.633,4.437-10.927A20.508,20.508,0,0,0,72.819,49.4l-.031.022c-2.621,2.288-6.211,5.423-5.655,9.223a2.623,2.623,0,0,0,1.1,1.81,2.794,2.794,0,0,0,2.2.405,13.355,13.355,0,0,0,7.893-4.434c1.878-2.26,1.193-4.766.559-6.714a22.278,22.278,0,0,1,13.377.1,8.288,8.288,0,0,1,4.9,3.858c1.2,2.241.55,4.311-1.824,5.825-.729.467-1.081.752-1.1,1.109a.52.52,0,0,0,.2.439c.274.226,1.123.617,3.043-.59a6.211,6.211,0,0,0,3.071-4.518,7.66,7.66,0,0,0,0-1.573ZM22.014,59.283l-.02.251A10.953,10.953,0,0,1,17.644,67a9.768,9.768,0,0,1-4.959,2.266,3.188,3.188,0,0,1-2.375-.447,1.876,1.876,0,0,1-.59-1.375c-.321-5.007,7.527-9.98,11.947-11.617a10.094,10.094,0,0,1,.349,3.456ZM42.119,45.165c-.726,4.143-2.847,11.964-6.177,15-.159.145-.293.2-.355.182s-.109-.087-.156-.2c-1.112-2.576-.7-6.932.983-10.352,1.294-2.637,3.143-4.384,5.211-4.912a1.039,1.039,0,0,1,.263-.036.31.31,0,0,1,.2.053.321.321,0,0,1,.036.263Zm16.4,15.1c-.626.654-1.486.564-1.282.327l3.191-3.386A6.662,6.662,0,0,1,58.52,60.269Zm13.235-2.928a2.763,2.763,0,0,1-.969.274c-.089-1.783,1.637-3.789,3.339-5.124a4.39,4.39,0,0,1-2.372,4.853Z" transform="translate(0 -5.623)" fill="#fff"/>
</svg>
