<svg xmlns="http://www.w3.org/2000/svg" width="100.577" height="52.909" viewBox="0 0 100.577 52.909">
  <path id="php" d="M29.377,27.471H25.421l-2.157,11.1h3.512a8.507,8.507,0,0,0,5.2-1.316,7,7,0,0,0,2.3-4.395q.578-2.954-.52-4.168c-.732-.807-2.19-1.215-4.389-1.215ZM50.289,8.532C22.515,8.532,0,20.375,0,34.984S22.515,61.441,50.289,61.441s50.289-11.849,50.289-26.457S78.062,8.532,50.289,8.532ZM36.627,39.756a10.186,10.186,0,0,1-3.844,2.31,17.9,17.9,0,0,1-5.384.687H22.451L21.079,49.8H15.3l5.155-26.51H31.564q5.012,0,7.309,2.632t1.383,7.342a11.549,11.549,0,0,1-3.632,6.493Zm16.863,3,2.277-11.731c.265-1.333.162-2.246-.285-2.73s-1.408-.729-2.878-.729H48.026l-2.95,15.193H39.342L44.5,16.24h5.727l-1.372,7.049h5.1c3.216,0,5.426.562,6.646,1.682s1.584,2.934,1.1,5.442l-2.4,12.337H53.49Zm31.838-9.491a11.659,11.659,0,0,1-1.28,3.548A11.853,11.853,0,0,1,81.7,39.756a10.225,10.225,0,0,1-3.844,2.31,17.91,17.91,0,0,1-5.389.687H67.518L66.146,49.8H60.371l5.155-26.51h11.1q5.012,0,7.309,2.632t1.389,7.339ZM74.452,27.471H70.5l-2.162,11.1h3.512a8.49,8.49,0,0,0,5.2-1.316,7.029,7.029,0,0,0,2.31-4.395c.386-1.97.207-3.361-.525-4.168s-2.2-1.215-4.389-1.215Z" transform="translate(0 -8.532)" fill="#fff"/>
</svg>
