<svg xmlns="http://www.w3.org/2000/svg" width="135" height="135" viewBox="0 0 135 135">
  <g id="Grupo_5" data-name="Grupo 5" transform="translate(0 -0.314)">
    <g id="Rectángulo_5" data-name="Rectángulo 5" transform="translate(0 0.314)" fill="none" stroke="#0288d1" stroke-width="4">
      <rect width="135" height="135" rx="21" stroke="none"/>
      <rect x="2" y="2" width="131" height="131" rx="19" fill="none"/>
    </g>
    <path id="design" d="M48.492,34.115l4.554,4.554-5.674,5.674a.788.788,0,0,0,0,1.261l1.191,1.191a.788.788,0,0,0,1.261,0L55.5,41.12l8.756,8.756-5.674,5.674a.72.72,0,0,0,0,1.191L59.769,58a.788.788,0,0,0,1.261,0L66.7,52.327l4.414,4.414a2.1,2.1,0,0,1,.63,1.542,2.338,2.338,0,0,1-.63,1.612L59.909,71.1a2.338,2.338,0,0,1-1.612.63,2.1,2.1,0,0,1-1.542-.63L34.129,48.478,20.96,61.648a3.891,3.891,0,0,1-5.465,0l-5.323-5.393a3.8,3.8,0,0,1,0-5.393l13.17-13.17-22.7-22.7a2.2,2.2,0,0,1,0-3.084L11.853.631A2.338,2.338,0,0,1,13.464,0a2.1,2.1,0,0,1,1.542.63L19.42,5.045,13.745,10.72a.788.788,0,0,0,0,1.261l1.191,1.191a.788.788,0,0,0,1.261,0L21.871,7.5l8.756,8.756-5.674,5.674a.788.788,0,0,0,0,1.261l1.191,1.191a.788.788,0,0,0,1.261,0L33.078,18.7l4.554,4.623L59.839,1.12a3.8,3.8,0,0,1,5.393,0l5.393,5.393a3.676,3.676,0,0,1,1.121,2.7,3.676,3.676,0,0,1-1.121,2.7ZM4.64,56.6a1.91,1.91,0,0,0,.491.912l9.107,9.107a1.91,1.91,0,0,0,.911.491,2.472,2.472,0,0,1-.56.84L2.261,71.734A3.731,3.731,0,0,1,.3,71.455a3.731,3.731,0,0,1-.279-1.961L3.8,57.166a5.983,5.983,0,0,1,.84-.56Z" transform="translate(31.243 31.257)" fill="#fff"/>
  </g>
</svg>
